<svg xmlns="http://www.w3.org/2000/svg" width="15.028" height="18.964" viewBox="0 0 15.028 18.964">
  <path id="Path_3447" data-name="Path 3447" d="M7.18,18.964c-.164-.046-.332-.083-.493-.139a2.353,2.353,0,0,1-1.578-2.163c-.005-.171,0-.342,0-.532h-.24q-2.064,0-4.128,0a.657.657,0,0,1-.709-.446.63.63,0,0,1,.548-.83c.2-.014.393,0,.621,0V14.6q0-2.768,0-5.536a6.519,6.519,0,0,1,.454-2.512,6.019,6.019,0,0,1,2.39-2.888c.5-.316,1.056-.545,1.6-.821A1.981,1.981,0,0,1,6.369.315,1.937,1.937,0,0,1,8.732.509a1.958,1.958,0,0,1,.451,2.38l.321.119A6.254,6.254,0,0,1,13.656,9q0,2.8,0,5.591v.251c.186,0,.363,0,.539,0a1.672,1.672,0,0,1,.367.028.636.636,0,0,1-.1,1.245,2.3,2.3,0,0,1-.259.011H9.819c0,.235.014.451,0,.664A2.342,2.342,0,0,1,7.839,18.93a.7.7,0,0,0-.1.033ZM2.485,14.828h9.871c0-.039.008-.063.008-.087,0-1.981.028-3.962-.01-5.942A4.77,4.77,0,0,0,9.947,4.636,4.667,4.667,0,0,0,7.47,3.949a4.657,4.657,0,0,0-2.459.624A4.873,4.873,0,0,0,2.488,8.991c-.014,1.876,0,3.751,0,5.627v.21m3.922,1.309c0,.212-.016.4,0,.593a1.067,1.067,0,0,0,1.334.9,1.189,1.189,0,0,0,.776-1.5Zm1.02-13.5a.659.659,0,0,0,.685-.663.686.686,0,0,0-1.372,0,.659.659,0,0,0,.687.663" transform="translate(0 0)"/>
</svg>
