<svg xmlns="http://www.w3.org/2000/svg" width="24" height="24" viewBox="0 0 24 24"><path d="M0,0H24V24H0Z" fill="none"/><path d="M5,7H6A2,2,0,0,0,8,5,1,1,0,0,1,9,4h6a1,1,0,0,1,1,1,2,2,0,0,0,2,2h1a2,2,0,0,1,2,2v9a2,2,0,0,1-2,2H5a2,2,0,0,1-2-2V9A2,2,0,0,1,5,7" fill="none" stroke="#2094ec" stroke-linecap="round" stroke-linejoin="round" stroke-width="1.5"/><circle cx="3" cy="3" r="3" transform="translate(9 10)" fill="none" stroke="#2094ec" stroke-linecap="round" stroke-linejoin="round" stroke-width="1.5"/></svg>