<svg id="Group_15682" data-name="Group 15682" xmlns="http://www.w3.org/2000/svg" xmlns:xlink="http://www.w3.org/1999/xlink" width="23.46" height="17.095" viewBox="0 0 23.46 17.095">
  <defs>
    <clipPath id="clip-path">
      <rect id="Rectangle_11221" data-name="Rectangle 11221" width="23.46" height="17.095" transform="translate(0 0)" fill="none"/>
    </clipPath>
  </defs>
  <g id="Group_15681" data-name="Group 15681" clip-path="url(#clip-path)">
    <path id="Path_7925" data-name="Path 7925" d="M22.39,3.64l-.04-.04-.61-.59c.51-.12,1.05-.54,1.05-.98,0-.5-.7-.68-1.3-.68-.63,0-.7.43-.71.73L19.2.57A2.14,2.14,0,0,0,17.82,0H11.69a2.162,2.162,0,0,0-1.38.57L8.74,2.08c-.01-.3-.08-.73-.71-.73-.6,0-1.3.18-1.3.69,0,.43.55.85,1.05.97l-.61.59a.138.138,0,0,0-.03.04A3.393,3.393,0,0,0,6.05,5.98v.43H8.96c-.94-.08-2.2-.43-2.2-.77a.988.988,0,0,1,.96-1,3.326,3.326,0,0,1,1.33.58c.51.32.94.71.94.99,0,.11-.13.17-.33.2h1.15a2.541,2.541,0,0,1-.05-.49h7.99c0,.91-.48,1.66-1.09,1.67H13.88l.58.68h3.97a1,1,0,0,1-1,1.01H15.72l.52.39.23.59h3.41v.22a.928.928,0,0,0,.94.92h1.14a.928.928,0,0,0,.94-.92V9.61a2.017,2.017,0,0,0,.56-1.4V5.98a3.372,3.372,0,0,0-1.07-2.34m-7.63-.4L9.28,3.01A28.194,28.194,0,0,1,11.69.92h6.14a1.6,1.6,0,0,1,.8.32l2.06,2Zm7.51,5.35a.5.5,0,0,1-.1.19.769.769,0,0,1-.18.18,2.022,2.022,0,0,1-.66.32H19.04l1.24-1.42h1.85a.833.833,0,0,1,.14.73M21.8,6.64c-.53,0-2.27.12-2.27-.43s1.74-1.56,2.27-1.56a1,1,0,0,1,0,1.99" fill="#c6c6c6"/>
    <path id="Path_7926" data-name="Path 7926" d="M16.332,9.335A.448.448,0,0,0,16.3,9.3l-.61-.589c.506-.115,1.051-.539,1.051-.974,0-.507-.7-.687-1.3-.687-.628,0-.7.43-.708.734L13.151,6.264a2.223,2.223,0,0,0-1.38-.566H5.638a2.22,2.22,0,0,0-1.379.566L2.685,7.781c-.008-.3-.081-.734-.708-.734-.6,0-1.3.18-1.3.687,0,.435.545.859,1.051.974l-.61.589c-.014.013-.023.026-.036.04A3.421,3.421,0,0,0,0,11.68v2.231a2.033,2.033,0,0,0,.559,1.4v.865a.933.933,0,0,0,.944.919H2.645a.932.932,0,0,0,.944-.919v-.221H13.821v.221a.932.932,0,0,0,.944.919h1.142a.933.933,0,0,0,.944-.919v-.865a2.033,2.033,0,0,0,.559-1.4V11.68a3.417,3.417,0,0,0-1.078-2.345m-11.5-2.4a1.573,1.573,0,0,1,.8-.324h6.134a1.573,1.573,0,0,1,.8.324l2.064,2H2.773Zm-4.129,4.4a.979.979,0,0,1,.958-1h0c.531,0,2.264,1.018,2.264,1.567s-1.733.433-2.264.433a.977.977,0,0,1-.961-.993ZM3.59,14.976H2.138a2.054,2.054,0,0,1-.664-.321.918.918,0,0,1-.18-.183.714.714,0,0,1-.1-.184.839.839,0,0,1,.144-.732H3.19l1.235,1.419Zm7.78,0H6.041A1.008,1.008,0,0,1,5.035,13.97h7.341a1,1,0,0,1-1.005,1.007h0Zm.234-1.692H5.8c-.6,0-1.094-.745-1.094-1.663H12.7c0,.914-.493,1.663-1.1,1.663Zm4.615,1.006a.714.714,0,0,1-.1.184.918.918,0,0,1-.18.183,2.054,2.054,0,0,1-.664.321H12.989l1.236-1.418h1.852a.84.84,0,0,1,.141.73Zm-.477-1.955c-.53,0-2.264.127-2.264-.422s1.734-1.567,2.264-1.567a1,1,0,0,1,0,1.989" fill="#c6c6c6"/>
  </g>
</svg>
