<svg id="Group_10902" data-name="Group 10902" xmlns="http://www.w3.org/2000/svg" xmlns:xlink="http://www.w3.org/1999/xlink" width="18.777" height="10.946" viewBox="0 0 18.777 10.946">
  <defs>
    <clipPath id="clip-path">
      <rect id="Rectangle_8634" data-name="Rectangle 8634" width="18.777" height="10.946" fill="#00b362"/>
    </clipPath>
  </defs>
  <g id="Group_10901" data-name="Group 10901" clip-path="url(#clip-path)">
    <path id="Path_5737" data-name="Path 5737" d="M0,5.363c.181-.213.352-.436.545-.637A18.036,18.036,0,0,1,5.079,1.2,9.548,9.548,0,0,1,8.6.045a9,9,0,0,1,3.945.5,12.779,12.779,0,0,1,5.094,3.44c.363.387.69.807,1.022,1.221a.381.381,0,0,1-.024.561,17.9,17.9,0,0,1-5.315,4.168,8.6,8.6,0,0,1-4.338,1,8.766,8.766,0,0,1-3.169-.824A17.05,17.05,0,0,1,.75,6.43c-.264-.268-.5-.564-.75-.847v-.22m17.928.094c-.5-.521-.931-1.017-1.405-1.472a11.567,11.567,0,0,0-4.63-2.823A7.885,7.885,0,0,0,8.6.831,9,9,0,0,0,5.431,1.9,17.565,17.565,0,0,0,1.577,4.8c-.223.215-.457.42-.686.63.059.075.075.1.1.122A17.545,17.545,0,0,0,5.822,9.242a8.6,8.6,0,0,0,2.87.886,7.009,7.009,0,0,0,3.268-.459A13.656,13.656,0,0,0,16.05,7.175c.63-.538,1.225-1.118,1.878-1.717" transform="translate(0 0)" fill="#00b362"/>
    <path id="Path_5738" data-name="Path 5738" d="M134.075,51.061a3.125,3.125,0,1,1-3.124-3.121,3.119,3.119,0,0,1,3.124,3.121m-3.127-2.342a2.346,2.346,0,1,0,2.349,2.339,2.353,2.353,0,0,0-2.349-2.339" transform="translate(-121.565 -45.592)" fill="#00b362"/>
  </g>
</svg>
