<svg xmlns="http://www.w3.org/2000/svg" width="24" height="23.823" viewBox="0 0 24 23.823">
  <g id="finance" transform="translate(-0.549)">
    <g id="Group_24151" data-name="Group 24151" transform="translate(0.549)">
      <g id="Group_24150" data-name="Group 24150" transform="translate(0)">
        <path id="Path_11963" data-name="Path 11963" d="M21.606,7.787H19.872V4.408A2.184,2.184,0,0,0,19.259,2.9l-1.12-1.161C17.188.764,17.068.49,16.5.218A2.233,2.233,0,0,0,15.543,0H7.36A2.2,2.2,0,0,0,5.15,2.189V14H4.683a1.27,1.27,0,0,0-1.275,1.263,1.252,1.252,0,0,0,.37.889,1.252,1.252,0,0,0-.37.889,1.284,1.284,0,0,0,.025.25,3.184,3.184,0,0,0,.459,6.348l6.288,0a1.271,1.271,0,0,0,1.275-1.263,1.252,1.252,0,0,0-.37-.889,1.251,1.251,0,0,0,.368-.826h.478v.253a2.933,2.933,0,0,0,2.944,2.916h6.729a2.933,2.933,0,0,0,2.944-2.916V10.7A2.933,2.933,0,0,0,21.606,7.787ZM18.6,3.293h0l0,0h0l0,0v0h0l0,0H16.716V1.323ZM4.683,14.744h5.5a.515.515,0,1,1,0,1.029h-5.5a.515.515,0,1,1,0-1.029Zm0,1.778h5.5a.515.515,0,1,1,0,1.029h-3.8a3.1,3.1,0,0,0-.478-.171,3.214,3.214,0,0,0-.756-.11c-.074,0-.148,0-.222,0H4.222a.5.5,0,0,1-.058-.235A.518.518,0,0,1,4.683,16.521ZM10.7,18.814a.518.518,0,0,1-.52.515H8.066A3.143,3.143,0,0,0,7.425,18.3h2.756A.518.518,0,0,1,10.7,18.814Zm-7.855-.672a3.234,3.234,0,0,0-.6.756H1.81A2.494,2.494,0,0,1,2.845,18.142ZM1.408,19.6h.55a3.2,3.2,0,0,0-.1.561H1.274A2.44,2.44,0,0,1,1.408,19.6Zm.061,1.855a2.439,2.439,0,0,1-.178-.592h.577A2.8,2.8,0,0,0,2,21.454Zm.471.7c.232,0,.367,0,.4,0a3.167,3.167,0,0,0,.508.609A2.5,2.5,0,0,1,1.94,22.156Zm3.224.777a2.494,2.494,0,1,1,1.588-4.309A2.495,2.495,0,0,1,5.164,22.933Zm5.017-.05H7.131a3.21,3.21,0,0,0,.812-1.029h2.238a.515.515,0,1,1,0,1.029Zm.515-2.229a.518.518,0,0,1-.515.452H8.2a3.185,3.185,0,0,0,.046-1.029h1.931A.517.517,0,0,1,10.7,20.654Zm1.236-.749h-.682a1.244,1.244,0,0,0-.165-.2,1.252,1.252,0,0,0,0-1.778,1.252,1.252,0,0,0,0-1.778,1.263,1.263,0,0,0-.9-2.152H5.905V2.189A1.45,1.45,0,0,1,7.36.748h8.6V3.68a.376.376,0,0,0,.378.374h2.733a26.2,26.2,0,0,1,.045,3.732h-4.24A2.933,2.933,0,0,0,11.933,10.7v9.2Zm11.908,1a2.227,2.227,0,0,1-2.235,2.214H14.876a2.227,2.227,0,0,1-2.235-2.214V10.7a2.227,2.227,0,0,1,2.235-2.214h6.729A2.227,2.227,0,0,1,23.841,10.7v10.2Z" transform="translate(-0.549)" fill="#00b362"/>
      </g>
    </g>
    <g id="Group_24153" data-name="Group 24153" transform="translate(13.712 9.268)">
      <g id="Group_24152" data-name="Group 24152">
        <path id="Path_11964" data-name="Path 11964" d="M288.625,199.538h-6.679a1.189,1.189,0,0,0-1.189,1.189v1.3a1.189,1.189,0,0,0,1.189,1.189h1.285a.354.354,0,1,0,0-.708h-1.285a.482.482,0,0,1-.481-.481v-1.3a.482.482,0,0,1,.481-.481h6.679a.481.481,0,0,1,.481.481v1.3a.481.481,0,0,1-.481.481h-3.867a.354.354,0,1,0,0,.708h3.867a1.19,1.19,0,0,0,1.189-1.189v-1.3A1.191,1.191,0,0,0,288.625,199.538Z" transform="translate(-280.757 -199.538)" fill="#00b362"/>
      </g>
    </g>
    <g id="Group_24155" data-name="Group 24155" transform="translate(13.712 16.657)">
      <g id="Group_24154" data-name="Group 24154">
        <path id="Path_11965" data-name="Path 11965" d="M282.709,358.428H281.5a.742.742,0,0,0-.741.741v1.21a.742.742,0,0,0,.741.741h1.21a.742.742,0,0,0,.742-.741v-1.21A.742.742,0,0,0,282.709,358.428Zm.033,1.951a.033.033,0,0,1-.033.033H281.5a.033.033,0,0,1-.033-.033v-1.21a.033.033,0,0,1,.033-.033h1.21a.033.033,0,0,1,.033.033Z" transform="translate(-280.757 -358.428)" fill="#00b362"/>
      </g>
    </g>
    <g id="Group_24157" data-name="Group 24157" transform="translate(20.115 13.527)">
      <g id="Group_24156" data-name="Group 24156">
        <path id="Path_11966" data-name="Path 11966" d="M419.008,291.068H417.8a.742.742,0,0,0-.741.741v1.21a.742.742,0,0,0,.741.741h1.21a.742.742,0,0,0,.741-.741v-1.21A.742.742,0,0,0,419.008,291.068Zm.033,1.951a.033.033,0,0,1-.033.033H417.8a.033.033,0,0,1-.033-.033c.015-1.2-.031-1.243.033-1.243h1.21a.033.033,0,0,1,.033.033Z" transform="translate(-417.056 -291.068)" fill="#00b362"/>
      </g>
    </g>
    <g id="Group_24159" data-name="Group 24159" transform="translate(13.712 13.527)">
      <g id="Group_24158" data-name="Group 24158">
        <path id="Path_11967" data-name="Path 11967" d="M282.709,291.068H281.5a.742.742,0,0,0-.741.741v1.21a.742.742,0,0,0,.741.741h1.21a.742.742,0,0,0,.742-.741v-1.21A.742.742,0,0,0,282.709,291.068Zm.033,1.951a.033.033,0,0,1-.033.033H281.5a.033.033,0,0,1-.033-.033v-1.21a.033.033,0,0,1,.033-.033h1.21a.033.033,0,0,1,.033.033Z" transform="translate(-280.757 -291.068)" fill="#00b362"/>
      </g>
    </g>
    <g id="Group_24161" data-name="Group 24161" transform="translate(13.711 19.618)">
      <g id="Group_24160" data-name="Group 24160">
        <path id="Path_11968" data-name="Path 11968" d="M283.238,422.741a.741.741,0,0,0-.555-.25h-1.21a.739.739,0,0,0-.554.25,1.013,1.013,0,0,0-.187.756v.946a.742.742,0,0,0,.741.741h1.21a.742.742,0,0,0,.741-.741V423.5A1.021,1.021,0,0,0,283.238,422.741Zm-.555,1.735c-1.2-.015-1.244.031-1.244-.033,0-1.281-.014-1.243.033-1.243h1.21c.058,0,.022.081.033.3A5.037,5.037,0,0,1,282.683,424.476Z" transform="translate(-280.73 -422.491)" fill="#00b362"/>
      </g>
    </g>
    <g id="Group_24163" data-name="Group 24163" transform="translate(20.115 16.609)">
      <g id="Group_24162" data-name="Group 24162">
        <path id="Path_11969" data-name="Path 11969" d="M418.819,358.428h-.834a.931.931,0,0,0-.93.929v3.758a1.016,1.016,0,0,0,1.015,1.015h.664a1.016,1.016,0,0,0,1.014-1.015v-3.758A.93.93,0,0,0,418.819,358.428Zm-.085,4.994h-.664a.307.307,0,0,1-.306-.307v-3.758a.221.221,0,0,1,.221-.221h.834a.221.221,0,0,1,.221.221v3.758h0A.306.306,0,0,1,418.734,363.422Z" transform="translate(-417.055 -358.428)" fill="#00b362"/>
      </g>
    </g>
    <g id="Group_24165" data-name="Group 24165" transform="translate(8.167 7.76)">
      <g id="Group_24164" data-name="Group 24164">
        <path id="Path_11970" data-name="Path 11970" d="M164.207,169.719c-.432-.159-.744-.273-.744-.673,0-.365.242-.55.72-.55.507,0,.644.223.822.223a.34.34,0,0,0,.3-.349c0-.3-.481-.441-.912-.48v-.266a.336.336,0,0,0-.671,0v.309a1.1,1.1,0,0,0-.912,1.148c0,.824.607,1.053,1.095,1.236s.855.321.855.866c0,.45-.25.679-.743.679-.722,0-.729-.487-1-.487a.354.354,0,0,0-.308.349c0,.279.416.646,1.017.741v.257a.336.336,0,1,0,.671,0v-.264a1.213,1.213,0,0,0,1.017-1.31C165.413,170.162,164.745,169.916,164.207,169.719Z" transform="translate(-162.707 -167.288)" fill="#00b362"/>
      </g>
    </g>
    <g id="Group_24167" data-name="Group 24167" transform="translate(16.893 19.618)">
      <g id="Group_24166" data-name="Group 24166">
        <path id="Path_11971" data-name="Path 11971" d="M350.941,422.7a.738.738,0,0,0-.514-.208h-1.21a.741.741,0,0,0-.555.25,1.017,1.017,0,0,0-.187.756v.946a.742.742,0,0,0,.741.741h1.21a.742.742,0,0,0,.741-.741v-1.21A.739.739,0,0,0,350.941,422.7Zm-.514,1.777c-1.2-.015-1.244.031-1.244-.033v-1.21a.033.033,0,0,1,.033-.033h1.21a.033.033,0,0,1,.033.033C350.446,424.431,350.49,424.476,350.427,424.476Z" transform="translate(-348.474 -422.491)" fill="#00b362"/>
      </g>
    </g>
    <g id="Group_24169" data-name="Group 24169" transform="translate(16.894 13.527)">
      <g id="Group_24168" data-name="Group 24168">
        <path id="Path_11972" data-name="Path 11972" d="M350.451,291.068h-1.21a.742.742,0,0,0-.741.741v1.21a.742.742,0,0,0,.741.741h1.21a.73.73,0,0,0,.27-.051.742.742,0,0,0,.471-.691v-1.21A.742.742,0,0,0,350.451,291.068Zm0,1.985h-1.21a.033.033,0,0,1-.033-.033v-1.21c0-.064.044-.019,1.244-.033a.033.033,0,0,1,.033.033v1.21h0A.033.033,0,0,1,350.451,293.053Z" transform="translate(-348.499 -291.068)" fill="#00b362"/>
      </g>
    </g>
    <g id="Group_24171" data-name="Group 24171" transform="translate(16.894 16.657)">
      <g id="Group_24170" data-name="Group 24170">
        <path id="Path_11973" data-name="Path 11973" d="M350.721,358.479a.731.731,0,0,0-.27-.051h-1.21a.742.742,0,0,0-.741.741v1.21a.742.742,0,0,0,.741.741h1.21a.742.742,0,0,0,.741-.741v-1.21A.742.742,0,0,0,350.721,358.479Zm-.237,1.9a.033.033,0,0,1-.033.033h-1.21a.033.033,0,0,1-.033-.033v-1.21a.033.033,0,0,1,.033-.033h1.21a.033.033,0,0,1,.033.033Z" transform="translate(-348.499 -358.428)" fill="#00b362"/>
      </g>
    </g>
    <g id="Group_24173" data-name="Group 24173" transform="translate(15.558 4.793)">
      <g id="Group_24172" data-name="Group 24172">
        <path id="Path_11974" data-name="Path 11974" d="M321.291,103.041h-.89a.354.354,0,1,0,0,.708h.89a.354.354,0,1,0,0-.708Z" transform="translate(-320.047 -103.041)" fill="#00b362"/>
      </g>
    </g>
    <g id="Group_24175" data-name="Group 24175" transform="translate(7.86 4.793)">
      <g id="Group_24174" data-name="Group 24174">
        <path id="Path_11975" data-name="Path 11975" d="M162.806,103.041h-6.281a.354.354,0,1,0,0,.708h6.281a.354.354,0,1,0,0-.708Z" transform="translate(-156.17 -103.041)" fill="#00b362"/>
      </g>
    </g>
    <g id="Group_24177" data-name="Group 24177" transform="translate(7.86 6.534)">
      <g id="Group_24176" data-name="Group 24176">
        <path id="Path_11976" data-name="Path 11976" d="M157.65,140.472h-1.126a.354.354,0,1,0,0,.708h1.126a.354.354,0,1,0,0-.708Z" transform="translate(-156.17 -140.472)" fill="#00b362"/>
      </g>
    </g>
    <g id="Group_24179" data-name="Group 24179" transform="translate(10.402 6.534)">
      <g id="Group_24178" data-name="Group 24178">
        <path id="Path_11977" data-name="Path 11977" d="M216.7,140.472h-6.045a.354.354,0,1,0,0,.708H216.7a.354.354,0,0,0,0-.708Z" transform="translate(-210.299 -140.472)" fill="#00b362"/>
      </g>
    </g>
    <g id="Group_24181" data-name="Group 24181" transform="translate(4.465 18.531)">
      <g id="Group_24180" data-name="Group 24180">
        <path id="Path_11978" data-name="Path 11978" d="M76.63,400.56c0-.089.033-.115.063-.132a.609.609,0,0,1,.514.035.405.405,0,0,0,.192.058c.349,0,.626-.649-.209-.793v-.022a.359.359,0,0,0-.718,0v.068a.805.805,0,0,0-.548.807c0,.6.439.769.759.889s.411.165.411.373c0,.13-.035.25-.289.25-.37,0-.326-.293-.6-.293a.37.37,0,0,0-.342.367c0,.245.255.478.611.573v.027a.359.359,0,1,0,.718,0v-.036a.887.887,0,0,0,.611-.909C77.8,400.746,76.63,400.907,76.63,400.56Z" transform="translate(-75.861 -399.347)" fill="#00b362"/>
      </g>
    </g>
  </g>
</svg>
