<svg id="Group_10898" data-name="Group 10898" xmlns="http://www.w3.org/2000/svg" xmlns:xlink="http://www.w3.org/1999/xlink" width="12.666" height="17.736" viewBox="0 0 12.666 17.736">
  <defs>
    <clipPath id="clip-path">
      <rect id="Rectangle_8631" data-name="Rectangle 8631" width="12.666" height="17.736" fill="#707070"/>
    </clipPath>
  </defs>
  <g id="Group_10897" data-name="Group 10897" clip-path="url(#clip-path)">
    <path id="Path_5732" data-name="Path 5732" d="M1.9,6.332c0-.178,0-.348,0-.518.011-.691-.02-1.387.043-2.073A4.193,4.193,0,0,1,5.342.1,4.6,4.6,0,0,1,8.964.8a4.157,4.157,0,0,1,1.8,3.417c.017.632,0,1.265,0,1.9v.222a1.946,1.946,0,0,1,1.272.5,1.825,1.825,0,0,1,.623,1.382c.005,2,.017,4.007,0,6.01a3.584,3.584,0,0,1-3.494,3.5q-2.827.03-5.655,0a3.587,3.587,0,0,1-3.495-3.5c-.018-2-.011-4.007,0-6.01a1.89,1.89,0,0,1,1.743-1.87L1.9,6.332M6.354,7.6H2a.644.644,0,0,0-.731.726q0,2.877,0,5.753a2.339,2.339,0,0,0,2.381,2.377q2.679,0,5.359,0A2.338,2.338,0,0,0,11.4,14.085q0-2.876,0-5.753a.648.648,0,0,0-.731-.727H6.354M3.134,6.326H9.5c0-.7.016-1.4,0-2.085A2.917,2.917,0,0,0,7.835,1.588a3.48,3.48,0,0,0-1.748-.311A2.891,2.891,0,0,0,3.267,3.6a23.288,23.288,0,0,0-.133,2.728" transform="translate(-0.001 0)" fill="#707070"/>
    <path id="Path_5733" data-name="Path 5733" d="M97.222,179.855a1.249,1.249,0,0,1,1.188.849A1.23,1.23,0,0,1,98,182.1a.35.35,0,0,0-.15.328c0,.593,0,1.186,0,1.778a.636.636,0,1,1-1.265.008c0-.593,0-1.186,0-1.778a.371.371,0,0,0-.161-.343,1.231,1.231,0,0,1-.4-1.4,1.252,1.252,0,0,1,1.2-.838" transform="translate(-90.883 -170.356)" fill="#707070"/>
  </g>
</svg>
