<svg xmlns="http://www.w3.org/2000/svg" xmlns:xlink="http://www.w3.org/1999/xlink" width="16.618" height="18.964" viewBox="0 0 16.618 18.964">
  <defs>
    <clipPath id="clip-path">
      <rect id="Rectangle_2225" data-name="Rectangle 2225" width="16.618" height="18.964" transform="translate(0 0)" fill="none"/>
    </clipPath>
  </defs>
  <g id="Group_1657" data-name="Group 1657" clip-path="url(#clip-path)">
    <path id="Path_3445" data-name="Path 3445" d="M8.342,7.93c0-3.691,2-6.554,5.016-7.537a7.372,7.372,0,0,1,9.729,5.858,7.632,7.632,0,0,1-1.693,6.284c-1.647,2.027-3.315,4.036-4.974,6.052a.748.748,0,0,1-1.293.011c-1.711-2.082-3.439-4.15-5.127-6.25A7.355,7.355,0,0,1,8.342,7.93m7.422,9.142c.052-.055.09-.09.122-.13,1.471-1.788,2.981-3.545,4.4-5.372a6.187,6.187,0,0,0,.755-6.9A5.492,5.492,0,0,0,16.312,1.5,5.675,5.675,0,0,0,11,3.835a6.382,6.382,0,0,0,.259,7.762q1.99,2.432,3.991,4.855c.167.2.336.405.514.62" transform="translate(-6.584 0)"/>
    <path id="Path_3446" data-name="Path 3446" d="M33.584,20.964a3.645,3.645,0,1,1-3.617-3.638,3.648,3.648,0,0,1,3.617,3.638m-5.832,0a2.187,2.187,0,1,0,2.187-2.185,2.191,2.191,0,0,0-2.187,2.185" transform="translate(-20.755 -13.675)"/>
  </g>
</svg>
