<svg id="Group_24157" data-name="Group 24157" xmlns="http://www.w3.org/2000/svg" width="34.478" height="31.497" viewBox="0 0 34.478 31.497">
  <path id="Path_11964" data-name="Path 11964" d="M-736.35-447.534a4.87,4.87,0,0,1-.4.641,1.362,1.362,0,0,1-1.084.483c-.991,0-1.983,0-3.01,0,0,1.022,0,2.013,0,3a1.481,1.481,0,0,1-1.007,1.415,1.507,1.507,0,0,1-2-1.431c-.016-.854,0-1.708,0-2.562v-.426H-745.2c-.526,0-1.053,0-1.579,0a1.506,1.506,0,0,1-1.57-1.492,1.529,1.529,0,0,1,1.559-1.517c.959-.009,1.918,0,2.935,0v-.381c0-.866-.01-1.731,0-2.6a1.528,1.528,0,0,1,1.384-1.511,1.518,1.518,0,0,1,1.588,1.158,1.941,1.941,0,0,1,.035.452c0,.945,0,1.89,0,2.879h1.7c.4,0,.8,0,1.193,0a1.529,1.529,0,0,1,1.529,1.013.531.531,0,0,0,.075.1Z" transform="translate(770.828 453.919)" fill="#c6c6c6"/>
  <path id="Path_11965" data-name="Path 11965" d="M-972.956-379.06q-5.144,0-10.288,0a4.494,4.494,0,0,1-3.972-2.1,4.239,4.239,0,0,1-.708-2.385q-.009-7.514,0-15.028a4.486,4.486,0,0,1,4.5-4.473c.784,0,1.568-.005,2.353,0a1.708,1.708,0,0,0,1.316-.548c.388-.406.787-.8,1.192-1.191a4.383,4.383,0,0,1,3.067-1.269c1.837-.022,3.675-.011,5.513,0a1.531,1.531,0,0,1,1.557,1.374,1.519,1.519,0,0,1-1.148,1.6,1.872,1.872,0,0,1-.452.039c-1.732,0-3.464.008-5.2,0a1.79,1.79,0,0,0-1.406.587c-.334.36-.693.7-1.04,1.046a4.568,4.568,0,0,1-3.34,1.384c-.784,0-1.568,0-2.353,0a1.485,1.485,0,0,0-1.553,1.54c-.01.737,0,1.475,0,2.212q0,6.232,0,12.465a1.534,1.534,0,0,0,1.722,1.733q10.27,0,20.541,0a1.491,1.491,0,0,0,1.645-1.12,2.27,2.27,0,0,0,.047-.555q0-5.091,0-10.183a1.507,1.507,0,0,1,1.765-1.593,1.47,1.47,0,0,1,1.244,1.472q0,4.02,0,8.041c0,.761-.032,1.523.006,2.282a4.542,4.542,0,0,1-4.656,4.682C-966.05-379.081-969.5-379.06-972.956-379.06Z" transform="translate(987.93 410.551)" fill="#c6c6c6"/>
  <path id="Path_11966" data-name="Path 11966" d="M-892.981-318.581a7.5,7.5,0,0,1-7.5,7.485,7.518,7.518,0,0,1-7.491-7.673,7.549,7.549,0,0,1,7.661-7.327A7.533,7.533,0,0,1-892.981-318.581Zm-3.018,0a4.467,4.467,0,0,0-4.43-4.493,4.463,4.463,0,0,0-4.528,4.427,4.466,4.466,0,0,0,4.462,4.533A4.475,4.475,0,0,0-896-318.58Z" transform="translate(915.48 338.089)" fill="#c6c6c6"/>
</svg>
