<svg xmlns="http://www.w3.org/2000/svg" width="36.49" height="36.496" viewBox="0 0 36.49 36.496">
  <g id="Group_24158" data-name="Group 24158" transform="translate(5 5)">
    <path id="Path_11967" data-name="Path 11967" d="M-934.163,88.473h11.6a3.882,3.882,0,0,1,4.039,4.05q0,7.738,0,15.475a1.278,1.278,0,0,1-.894,1.268,1.22,1.22,0,0,1-1.438-.464,1.784,1.784,0,0,1-.262-.907q-.023-7.574-.011-15.149c0-1.2-.467-1.667-1.677-1.667h-22.761c-1.154,0-1.627.475-1.627,1.633q0,11.4,0,22.805c0,1.151.481,1.631,1.632,1.631q7.634,0,15.269,0a1.319,1.319,0,0,1,1.336,1.073,1.306,1.306,0,0,1-.888,1.467,1.577,1.577,0,0,1-.478.063q-7.818,0-15.635,0a3.875,3.875,0,0,1-3.837-3.841q-.008-11.79,0-23.579a3.877,3.877,0,0,1,3.863-3.857Q-940.046,88.465-934.163,88.473Z" transform="translate(-918.306 119.967) rotate(180)" fill="#c6c6c6"/>
    <path id="Path_11968" data-name="Path 11968" d="M-894.237,227.517v-3.406c0-1.534-.008-3.068.01-4.6a.923.923,0,0,1,.234-.556c.438-.481.905-.937,1.368-1.4a1.294,1.294,0,0,1,1.977-.011c.878.868,1.744,1.749,2.616,2.624.094.095.193.184.309.294.118-.111.227-.208.33-.311l6.386-6.4a1.343,1.343,0,0,1,2.21,0q2.575,2.579,5.152,5.156a.816.816,0,0,1,.264.639c-.009,2.525-.005,5.05-.005,7.575v.391Z" transform="translate(899.451 -201.478)" fill="#c6c6c6"/>
    <path id="Path_11969" data-name="Path 11969" d="M-694.542,343.768c0-1.315,0-2.564,0-3.812a1.288,1.288,0,0,1,1.3-1.4,1.291,1.291,0,0,1,1.306,1.4q0,1.69,0,3.379v.438H-690c.665,0,1.33-.006,1.995,0a1.279,1.279,0,0,1,1.28,1.3,1.274,1.274,0,0,1-1.274,1.3c-1.153.009-2.307,0-3.46,0h-.478c0,.712,0,1.387,0,2.061,0,.624.006,1.249,0,1.873a1.28,1.28,0,0,1-1.3,1.28,1.278,1.278,0,0,1-1.3-1.276c-.008-1.153,0-2.307,0-3.461v-.477h-1.9c-.679,0-1.357.006-2.035,0a1.279,1.279,0,0,1-1.278-1.3,1.27,1.27,0,0,1,1.275-1.3c1.153-.008,2.307,0,3.46,0Z" transform="translate(-691.725 346.588) rotate(180)" fill="#c6c6c6"/>
    <path id="Path_11970" data-name="Path 11970" d="M-859.493,147.285a3.237,3.237,0,0,1,3.277-3.227,3.236,3.236,0,0,1,3.237,3.308,3.244,3.244,0,0,1-3.3,3.208A3.243,3.243,0,0,1-859.493,147.285Z" transform="translate(867.965 -138.843)" fill="#c6c6c6"/>
  </g>
</svg>
