<svg id="Group_1698" data-name="Group 1698" xmlns="http://www.w3.org/2000/svg" xmlns:xlink="http://www.w3.org/1999/xlink" width="18.47" height="24.683" viewBox="0 0 18.47 24.683">
  <defs>
    <clipPath id="clip-path">
      <rect id="Rectangle_2286" data-name="Rectangle 2286" width="18.47" height="24.683" fill="#00b362" stroke="#00b362" stroke-width="0.3"/>
    </clipPath>
  </defs>
  <g id="Group_1696" data-name="Group 1696" clip-path="url(#clip-path)">
    <path id="Path_3449" data-name="Path 3449" d="M1.037,24.683a4.06,4.06,0,0,1-.405-.194,1.227,1.227,0,0,1-.617-.98A5.76,5.76,0,0,1,0,22.859a.357.357,0,0,1,.363-.393c.21,0,.344.151.355.4.007.168,0,.338.007.506a.57.57,0,0,0,.605.583c2.764,0,5.528.018,8.292-.008a3.2,3.2,0,0,0,3.023-2.723,1.919,1.919,0,0,0,0-.238c-.082.045-.151.081-.219.119a6.5,6.5,0,1,1,3.245-6.441,10.684,10.684,0,0,1,.007,1.538.356.356,0,0,1-.393.39c-.222-.014-.35-.17-.321-.445A5.775,5.775,0,1,0,8.5,21.172a5.678,5.678,0,0,0,3.985-.951.437.437,0,0,0,.222-.341,1.171,1.171,0,0,1,.973-.971.51.51,0,0,0,.3-.189c.187-.289.35-.594.513-.9.128-.238.3-.331.5-.246a.369.369,0,0,1,.159.549c-.118.251-.25.5-.391.775a3.237,3.237,0,0,0,2.651-1.8,3.051,3.051,0,0,0,.329-1.418q0-4.278,0-8.556c0-.048-.007-.1-.013-.18-.262,0-.524,0-.785,0-.3,0-.472-.135-.471-.363s.173-.358.474-.36l.723,0a.238.238,0,0,0,.061-.025c0-.07.012-.147.012-.225q0-1.289,0-2.579c0-.542-.2-.736-.744-.737H15.932c0,.374.009.732,0,1.09a1.412,1.412,0,0,1-2.824-.05c-.008-.336,0-.672,0-1.024H10.639c0,.369.008.729,0,1.088a1.4,1.4,0,0,1-2.775.257,7.392,7.392,0,0,1-.036-1.105c0-.071,0-.143,0-.235H5.363c0,.332.006.667,0,1a1.381,1.381,0,0,1-.879,1.346A1.4,1.4,0,0,1,2.538,3.759c-.013-.359,0-.72,0-1.1-.459,0-.9-.021-1.336.007-.295.019-.471.277-.474.629-.006.651,0,1.3,0,1.952,0,.313,0,.626,0,.973H14.952c.386,0,.56.118.552.373s-.171.35-.551.35H.724v.346q0,6.8,0,13.593a1.728,1.728,0,0,1-.019.336.324.324,0,0,1-.344.277.328.328,0,0,1-.343-.279A1.3,1.3,0,0,1,0,20.952q0-8.785,0-17.57A1.319,1.319,0,0,1,1.468,1.927H2.535c0-.173,0-.33,0-.488A1.421,1.421,0,0,1,3.875,0,1.405,1.405,0,0,1,5.352,1.318c.018.19,0,.384,0,.592H7.829c0-.192-.006-.375,0-.557a1.4,1.4,0,0,1,2.807,0c.007.176,0,.352,0,.55h2.468c0-.172-.008-.346,0-.519A1.421,1.421,0,0,1,14.355.01a1.388,1.388,0,0,1,1.5.983,6.217,6.217,0,0,1,.11.933h1.059a1.311,1.311,0,0,1,1.439,1.434q0,9.942,0,19.883a1.406,1.406,0,0,1-1.04,1.438Zm16.7-5.311a9.608,9.608,0,0,1-4.621,4.588h3.869c.57,0,.762-.193.762-.769q0-1.794,0-3.588c0-.077-.006-.153-.01-.23m-5.358,4.034c1.83-.442,4.7-3.316,4.784-4.767-.2.139-.4.289-.608.421a4.335,4.335,0,0,1-2.544.566c-.448-.017-.581.141-.6.584a10.94,10.94,0,0,1-.109,1.412,3.67,3.67,0,0,1-.924,1.785M15.21,2.572c0-.361,0-.723,0-1.084a.692.692,0,1,0-1.379-.015q-.012,1.1,0,2.193a.691.691,0,1,0,1.378-.009c0-.361,0-.723,0-1.084M3.258,2.556c0,.37,0,.739,0,1.108a.688.688,0,0,0,.668.733.675.675,0,0,0,.709-.716q.017-1.12,0-2.241A.684.684,0,0,0,3.944.727a.7.7,0,0,0-.685.745c0,.361,0,.723,0,1.084m6.659.019c0-.377.005-.755,0-1.132a.683.683,0,1,0-1.364,0q-.009,1.12,0,2.24a.683.683,0,1,0,1.364,0c.006-.369,0-.739,0-1.108" transform="translate(0 0)" fill="#00b362" stroke="#00b362" stroke-width="0.3"/>
    <path id="Path_3450" data-name="Path 3450" d="M78.74,188.3l2.493-2.5c.193-.193.385-.387.579-.579.25-.247.411-.252.655-.011q.676.669,1.345,1.346a.373.373,0,0,1,0,.622c-.44.446-.885.886-1.328,1.329l-3.373,3.372c-.3.3-.448.3-.742.007l-2.964-2.964c-.281-.282-.281-.425,0-.706q.638-.639,1.277-1.278c.265-.265.43-.267.692-.007.449.447.9.9,1.364,1.364m-.011,2.865,4.292-4.292-.916-.914c-.036.035-.1.089-.151.145l-2.641,2.64c-.575.575-.575.576-1.151,0-.373-.373-.743-.748-1.1-1.1l-.929.929,2.593,2.6" transform="translate(-70.354 -173.121)" fill="#00b362" stroke="#00b362" stroke-width="0.3"/>
  </g>
</svg>
