<svg id="Component_47_2" data-name="Component 47 – 2" xmlns="http://www.w3.org/2000/svg" width="24" height="24" viewBox="0 0 24 24">
  <path id="Path_3437" data-name="Path 3437" d="M0,0H24V24H0Z" transform="translate(0)" fill="none"/>
  <path id="Path_3438" data-name="Path 3438" d="M6,0H8a6,6,0,0,1,6,6v6a1,1,0,0,1-1,1H1a1,1,0,0,1-1-1V6A6,6,0,0,1,6,0Z" transform="translate(19 21) rotate(180)" fill="none" stroke="#c6c6c6" stroke-linecap="round" stroke-linejoin="round" stroke-width="1.5"/>
  <path id="Path_3439" data-name="Path 3439" d="M10,8V6.667A2.848,2.848,0,0,1,13,4a2.848,2.848,0,0,1,3,2.667V8" transform="translate(-1 -1)" fill="none" stroke="#c6c6c6" stroke-linecap="round" stroke-linejoin="round" stroke-width="1.5"/>
  <path id="Path_3440" data-name="Path 3440" d="M0,4.382V2.921a2.921,2.921,0,0,1,5.843,0V4.382" transform="translate(14.843 15.354) rotate(180)" fill="none" stroke="#c6c6c6" stroke-linecap="round" stroke-linejoin="round" stroke-width="1.5"/>
</svg>
