<svg id="Group_24211" data-name="Group 24211" xmlns="http://www.w3.org/2000/svg" xmlns:xlink="http://www.w3.org/1999/xlink" width="18.108" height="16.021" viewBox="0 0 18.108 16.021">
  <defs>
    <clipPath id="clip-path">
      <rect id="Rectangle_11303" data-name="Rectangle 11303" width="18.108" height="16.021" fill="#f90101"/>
    </clipPath>
  </defs>
  <g id="Group_15798" data-name="Group 15798" clip-path="url(#clip-path)">
    <path id="Path_7947" data-name="Path 7947" d="M40.154,8.43c.039.291.069.583.119.871a7.838,7.838,0,0,0,3.678,5.5,7.66,7.66,0,0,0,5.21,1.146,7.854,7.854,0,0,0,5.621-3.431.968.968,0,0,0-.209-1.365.954.954,0,0,0-1.374.228,6.364,6.364,0,0,1-2.428,2.088,6.064,6.064,0,0,1-7.416-1.8,5.827,5.827,0,0,1-1.207-4.222,5.757,5.757,0,0,1,3.326-4.833,5.813,5.813,0,0,1,6.649.835,8.557,8.557,0,0,1,1.075,1.2,1,1,0,0,0,1.217.326A.973.973,0,0,0,54.8,3.534,7.608,7.608,0,0,0,53.448,1.99,8,8,0,0,0,44.893.706a7.941,7.941,0,0,0-3.718,3.406,7.7,7.7,0,0,0-.985,3.25c-.006.076-.023.151-.036.226Z" transform="translate(-40.154 0)" fill="#f90101"/>
    <path id="Path_7948" data-name="Path 7948" d="M3.362,54.928H11.12a.984.984,0,0,0,1.066-.7.968.968,0,0,0-.866-1.244c-.1-.006-.2-.006-.294-.006H3.357c.087-.091.136-.143.187-.195.374-.379.759-.748,1.12-1.139a.926.926,0,0,0,.124-1.077.885.885,0,0,0-.932-.512,1.184,1.184,0,0,0-.629.29c-.991.961-1.964,1.942-2.935,2.924A.953.953,0,0,0,.3,54.645q1.45,1.465,2.915,2.915A.977.977,0,1,0,4.6,56.189c-.348-.366-.712-.716-1.068-1.073-.048-.048-.092-.1-.175-.188" transform="translate(5.881 -45.951)" fill="#f90101"/>
  </g>
</svg>
