<svg xmlns="http://www.w3.org/2000/svg" width="20.242" height="20.325" viewBox="0 0 20.242 20.325">
  <g id="Layer_4" data-name="Layer 4" transform="translate(-0.54 -0.434)">
    <path id="Path_12304" data-name="Path 12304" d="M11.1,21.248H13.39a1.4,1.4,0,0,0,0-2.8H7.506l-1.9,1.51v4.492l1.9,1.255H17.784l3.668-4.224a1.639,1.639,0,0,0-2.229-2.38l-1.961,1.471-2.243-.726" transform="translate(-1.755 -6.237)" fill="none"/>
    <path id="Path_12305" data-name="Path 12305" d="M17.438,26.015H7.166a.654.654,0,0,1-.34-.111L4.9,24.648a.654.654,0,0,1-.294-.543V19.614a.654.654,0,0,1,.255-.5l1.9-1.523a.654.654,0,0,1,.405-.144h5.884a2.053,2.053,0,0,1,1.961,1.471l1.824.575L18.5,18.235a2.3,2.3,0,0,1,3.119,3.348l-3.681,4.2A.654.654,0,0,1,17.438,26.015ZM7.363,24.707H17.17l3.472-4a1,1,0,0,0-1.393-1.432l-1.961,1.471a.654.654,0,0,1-.588.1l-1.824-.569a2.053,2.053,0,0,1-1.9,1.308H10.749a.654.654,0,0,1,0-1.308h2.295a.745.745,0,0,0,0-1.484H7.4L5.918,19.928v3.825Z" transform="translate(-1.409 -5.891)" fill="#00b362"/>
    <path id="Path_12306" data-name="Path 12306" d="M4.2,17.47V26H1.54V17.47Z" transform="translate(-0.346 -5.898)" fill="none"/>
    <path id="Path_12307" data-name="Path 12307" d="M3.855,26.327H1.194a.654.654,0,0,1-.654-.654v-8.5a.654.654,0,0,1,.654-.654H3.855a.654.654,0,0,1,.654.654v8.5A.654.654,0,0,1,3.855,26.327ZM1.848,25.02H3.2V17.828H1.848Z" transform="translate(0 -5.569)" fill="#00b362"/>
    <path id="Path_12308" data-name="Path 12308" d="M18.477,12.485l-2.138-2.04a4.675,4.675,0,1,1,2.053-1.6Z" transform="translate(-3.253 -0.344)" fill="none"/>
    <path id="Path_12309" data-name="Path 12309" d="M16.668,12.795a.654.654,0,0,1-.451-.183l-1.85-1.759A5.329,5.329,0,1,1,17.237,8.7l.085,3.426a.654.654,0,0,1-.654.654ZM14.524,9.447a.654.654,0,0,1,.451.183l.974.981L15.9,8.558a.654.654,0,0,1,.118-.432A4,4,0,1,0,11.575,9.6a3.923,3.923,0,0,0,2.681-.1.654.654,0,0,1,.242-.046ZM5.364,5.381a.654.654,0,0,1-.654-.654V3.158a.654.654,0,0,1,1.308,0V4.727A.654.654,0,0,1,5.364,5.381Z" transform="translate(-1.444)" fill="#00b362"/>
    <path id="Path_12310" data-name="Path 12310" d="M5.733,6.1H4.184a.654.654,0,1,1,0-1.308h1.55a.654.654,0,0,1,0,1.308ZM20.359,11.89a.654.654,0,0,1-.654-.654V9.687a.654.654,0,0,1,1.308,0v1.556A.654.654,0,0,1,20.359,11.89Z" transform="translate(-1.035 -1.508)" fill="#00b362"/>
    <path id="Path_12311" data-name="Path 12311" d="M29.29,13.768H27.734a.654.654,0,0,1,0-1.308H29.29a.654.654,0,0,1,0,1.308Z" transform="translate(-9.188 -4.163)" fill="#00b362"/>
  </g>
</svg>
